<svg xmlns="http://www.w3.org/2000/svg" width="20.085" height="20.085" viewBox="0 0 20.085 20.085">
  <path id="Path_18" data-name="Path 18" d="M17.433,6.1l.478.478a.945.945,0,0,1,0,1.34l-1.15,1.154L14.939,7.249l1.15-1.15a.945.945,0,0,1,1.34,0Zm-9.14,7.8L13.6,8.589l1.822,1.822-5.309,5.305a.946.946,0,0,1-.411.241l-2.313.66.66-2.313a.946.946,0,0,1,.241-.411Zm6.456-9.14-7.8,7.8a2.824,2.824,0,0,0-.723,1.229L5.1,17.736A.949.949,0,0,0,6.27,18.91l3.953-1.131a2.856,2.856,0,0,0,1.229-.723l7.8-7.8a2.846,2.846,0,0,0,0-4.024l-.478-.478A2.846,2.846,0,0,0,14.749,4.758ZM3.479,6.3A3.479,3.479,0,0,0,0,9.779V20.531A3.479,3.479,0,0,0,3.479,24.01H14.231a3.479,3.479,0,0,0,3.479-3.479V16.1a.949.949,0,0,0-1.9,0v4.428a1.581,1.581,0,0,1-1.581,1.581H3.479A1.581,1.581,0,0,1,1.9,20.531V9.779A1.581,1.581,0,0,1,3.479,8.2H7.906a.949.949,0,1,0,0-1.9Z" transform="translate(0 -3.925)" fill="#fff"/>
</svg>
