<svg xmlns="http://www.w3.org/2000/svg" width="52" height="52" viewBox="0 0 52 52">
  <g id="Group_19" data-name="Group 19" transform="translate(0 -0.4)">
    <g id="Group_63" data-name="Group 63">
      <path id="Subtraction_4" data-name="Subtraction 4" d="M26,52A26.007,26.007,0,0,1,15.88,2.043,26.007,26.007,0,0,1,36.12,49.957,25.839,25.839,0,0,1,26,52Zm.254-42.259A16.307,16.307,0,0,0,12.132,34.185L9.82,42.631l8.639-2.266a16.34,16.34,0,0,0,7.789,1.983h.006a16.3,16.3,0,0,0,0-32.607Zm0,29.855h0a13.531,13.531,0,0,1-6.9-1.888l-.495-.294-5.127,1.345,1.368-5-.322-.514A13.546,13.546,0,1,1,26.254,39.6ZM20.486,18.511a1.482,1.482,0,0,0-1.086.51l-.056.06-.023.024a4.483,4.483,0,0,0-1.347,3.313,7.728,7.728,0,0,0,1.662,4.211c.014.019.038.053.073.1a17.627,17.627,0,0,0,6.884,6.047,23.8,23.8,0,0,0,2.322.858,5.1,5.1,0,0,0,1.574.239,6.672,6.672,0,0,0,.991-.078,4.176,4.176,0,0,0,2.749-1.935,3.4,3.4,0,0,0,.237-1.937,1.324,1.324,0,0,0-.559-.367l-.222-.109c-.385-.193-2.408-1.188-2.783-1.325a1.346,1.346,0,0,0-.436-.1.564.564,0,0,0-.479.309c-.267.4-1.039,1.311-1.29,1.6a.565.565,0,0,1-.439.232,1.009,1.009,0,0,1-.443-.131c-.065-.032-.148-.069-.268-.121a10.576,10.576,0,0,1-3.006-1.9,12.17,12.17,0,0,1-2.266-2.821c-.241-.413-.018-.635.179-.831.124-.123.273-.3.4-.466.061-.074.136-.166.206-.248a2.3,2.3,0,0,0,.347-.558l.06-.121a.75.75,0,0,0-.034-.713c-.072-.144-.487-1.156-.854-2.049l-.054-.132c-.134-.327-.257-.627-.347-.843-.27-.644-.538-.7-.79-.7h-.126C21.053,18.516,20.8,18.511,20.486,18.511Z" transform="translate(0 0.4)" fill="#fff"/>
    </g>
  </g>
</svg>
