<svg xmlns="http://www.w3.org/2000/svg" width="80.615" height="41.454" viewBox="0 0 80.615 41.454">
  <g id="Group_27" data-name="Group 27" transform="translate(1 1)">
    <path id="Path_36" data-name="Path 36" d="M0,36.052V52.2c0,.157.008.312.02.466a18.9,18.9,0,0,0,.071,2.8,14.237,14.237,0,0,0,1.66,5.395,9.448,9.448,0,0,0,2.01,2.687,13.3,13.3,0,0,0,6.4,2.992,13.866,13.866,0,0,0,2.1.262c.428.017.791-.047,1.135,0a3.685,3.685,0,0,1,.874.284c1.682.674,3.382,1.3,5.089,1.966a3.868,3.868,0,0,0,1.791.5c.745-.2.47-1.5.5-2.381.011-.3-.044-.638.066-.765.173-.2,1.237-.131,1.616-.131.663,0,1.208-.022,1.7-.022,1.24,0,2.6.158,2.84-.939.2-.917-.162-2.387.111-3.384a6.1,6.1,0,0,1,1.442-.065c.465-.022.951-.028,1.441-.044,1.431-.045,3.169.228,3.539-.917a3.234,3.234,0,0,0,.09-.968h0V36.052A5.953,5.953,0,0,0,28.545,30.1H5.956A5.953,5.953,0,0,0,0,36.052" transform="translate(44.116 -30.099)" fill="none" stroke="#f47521" stroke-width="2" fill-rule="evenodd"/>
    <path id="Path_37" data-name="Path 37" d="M0,36.052V52.2c0,.157.008.312.02.466a18.9,18.9,0,0,0,.071,2.8,14.237,14.237,0,0,0,1.66,5.395,9.448,9.448,0,0,0,2.01,2.687,13.3,13.3,0,0,0,6.4,2.992,13.866,13.866,0,0,0,2.1.262c.428.017.791-.047,1.135,0a3.685,3.685,0,0,1,.874.284c1.682.674,3.382,1.3,5.089,1.966a3.868,3.868,0,0,0,1.791.5c.745-.2.47-1.5.5-2.381.011-.3-.044-.638.066-.765.173-.2,1.237-.131,1.616-.131.663,0,1.208-.022,1.7-.022,1.24,0,2.6.158,2.84-.939.2-.917-.162-2.387.111-3.384a6.1,6.1,0,0,1,1.442-.065c.465-.022.951-.028,1.441-.044,1.431-.045,3.169.228,3.539-.917a3.234,3.234,0,0,0,.09-.968h0V36.052A5.953,5.953,0,0,0,28.545,30.1H5.956A5.953,5.953,0,0,0,0,36.052" transform="translate(0 -30.099)" fill="none" stroke="#f47521" stroke-width="2" fill-rule="evenodd"/>
  </g>
</svg>
