<svg xmlns="http://www.w3.org/2000/svg" width="208.858" height="182.999" viewBox="0 0 208.858 182.999">
  <path id="Path_29" data-name="Path 29" d="M179.985,61.16V145.4c0,.82-.042,1.63-.1,2.434a98.6,98.6,0,0,1-.369,14.589,74.286,74.286,0,0,1-8.66,28.147,49.3,49.3,0,0,1-10.485,14.018c-8.488,7.627-19.839,12.938-33.389,15.613a72.348,72.348,0,0,1-10.94,1.367c-2.232.089-4.125-.245-5.924,0a19.227,19.227,0,0,0-4.558,1.482c-8.774,3.516-17.645,6.76-26.555,10.255-2.94,1.154-5.948,2.977-9.345,2.62-3.888-1.023-2.451-7.839-2.62-12.421-.059-1.588.23-3.328-.344-3.989-.9-1.04-6.454-.685-8.434-.685-3.458,0-6.3-.113-8.886-.113-6.47,0-13.564.823-14.816-4.9-1.058-4.787.847-12.457-.579-17.657-2.354-.708-4.9-.216-7.522-.341-2.425-.115-4.96-.148-7.519-.228C11.47,195.357,2.4,196.778.472,190.8A16.874,16.874,0,0,1,0,185.753H0V61.16A31.061,31.061,0,0,1,31.061,30.1H148.924A31.061,31.061,0,0,1,179.985,61.16" transform="translate(-28.599 181.499) rotate(-90)" fill="none" stroke="#443e72" stroke-width="3" fill-rule="evenodd"/>
</svg>
