<svg xmlns="http://www.w3.org/2000/svg" width="445.988" height="445.667" viewBox="0 0 445.988 445.667">
  <g id="Group_25" data-name="Group 25" transform="matrix(0.914, -0.407, 0.407, 0.914, -45.957, 127.879)">
    <path id="Path_36" data-name="Path 36" d="M96.2,230.914c-.409-.019-.821-.058-1.225-.115l-.128-.018-.125-.036a6.372,6.372,0,0,1-4.472-5.007,28.607,28.607,0,0,1-.548-6.6c-.011-1.294-.021-2.517-.12-3.61-.051-.556-.063-1.1-.075-1.625a10.776,10.776,0,0,0-.127-1.74,18.011,18.011,0,0,0-4.462-.541c-.957-.045-1.893-.068-2.72-.089-.631-.016-1.176-.029-1.607-.049-2.23-.1-4.2-.231-6.11-.354-1.589-.1-3.09-.2-4.5-.265-.852-.04-1.733-.07-2.585-.1s-1.747-.059-2.614-.1a29.294,29.294,0,0,1-8.664-1.374,8.778,8.778,0,0,1-5.8-5.9c-.774-2.678-.751-5.863-.726-9.234a36.853,36.853,0,0,0-.658-9.149,15.838,15.838,0,0,0-2.486-.282c-.61-.028-1.226-.039-1.877-.049-.67-.011-1.362-.022-2.067-.055-.444-.021-.849-.048-1.239-.083-1.858-.167-3.737-.3-5.726-.435-1.057-.073-2.15-.149-3.236-.231-.75-.056-1.557-.1-2.54-.15-.8-.037-1.616-.069-2.408-.1s-1.627-.063-2.438-.1a39.588,39.588,0,0,1-9.71-1.342,12.546,12.546,0,0,1-4.067-2.057,8.678,8.678,0,0,1-2.743-3.65,15.04,15.04,0,0,1-.864-4.489h0l-.019-.351q-.024-.4-.042-.8l-.021-.387L.5,34.223A30.689,30.689,0,0,1,10.572,9.651,34.269,34.269,0,0,1,22.5,2.619,39.673,39.673,0,0,1,37.448.533L178.154,7.1a44.573,44.573,0,0,1,27.935,11.677,40.6,40.6,0,0,1,8.88,11.671,34.944,34.944,0,0,1,3.751,13.96l4.695,92.114c.042.816.047,1.693.016,2.676a100.5,100.5,0,0,1,.368,16.061,70.525,70.525,0,0,1-2.968,16.8,75.433,75.433,0,0,1-5.961,14.053,48.5,48.5,0,0,1-12.075,15.149,65.6,65.6,0,0,1-17.523,9.972,97.224,97.224,0,0,1-22.245,5.566,92.368,92.368,0,0,1-13.24.9c-.335,0-.674-.013-1.036-.03-.833-.039-1.612-.107-2.366-.173-.673-.059-1.309-.115-1.915-.143a12.692,12.692,0,0,0-1.6.011,17.464,17.464,0,0,0-4.2,1.034q-.38.127-.769.254c-5.835,1.905-11.817,3.745-17.6,5.524-4.434,1.364-9.019,2.774-13.538,4.213-.705.225-1.411.481-2.159.752C102.013,230.087,99.331,231.06,96.2,230.914Zm-.891-3.133c.243.031.489.052.735.064,2.431.113,4.687-.705,7.075-1.572.744-.27,1.513-.549,2.279-.793,4.535-1.444,9.127-2.857,13.569-4.223,5.772-1.775,11.741-3.611,17.55-5.508.253-.083.5-.166.749-.248a20.57,20.57,0,0,1,5-1.2,16.179,16.179,0,0,1,2.051-.018c.682.032,1.354.091,2.066.153s1.458.128,2.215.163c.317.015.612.023.9.026a88.832,88.832,0,0,0,12.727-.869c15.81-2.14,28.667-7.147,38.214-14.884a45.907,45.907,0,0,0,11.4-14.338,68.539,68.539,0,0,0,8.612-29.736,97.678,97.678,0,0,0-.367-15.705l-.01-.1,0-.1c.032-.944.028-1.774-.011-2.537l-4.695-92.114c-.911-17.881-17.535-33.17-37.058-34.081L37.6,3.6C18.081,2.691,2.94,16.5,3.851,34.379l6.865,134.7h.013l.07,1.546a16.511,16.511,0,0,0,.736,5.063c.678,1.708,2.1,2.853,4.476,3.6a36.462,36.462,0,0,0,8.745,1.169c.8.037,1.616.069,2.408.1s1.627.063,2.438.1c1.018.048,1.859.1,2.644.156,1.075.081,2.163.156,3.215.229,1.921.133,3.906.271,5.8.442.336.03.689.054,1.08.072.649.03,1.314.041,1.956.052s1.323.022,1.988.053a17,17,0,0,1,4.381.7l.9.286.287.831c1.144,3.312,1.115,7.224,1.088,11.006-.023,3.157-.045,6.14.611,8.408,1.018,3.553,4.827,4.416,11.064,4.708.843.039,1.719.069,2.567.1.864.029,1.756.059,2.632.1,1.447.068,2.964.165,4.57.268,1.892.122,3.848.247,6.045.35.391.018.918.031,1.527.047.845.021,1.8.045,2.8.092,4.181.2,6.1.648,7.074,1.669.96,1,.992,2.419,1.025,3.917.011.478.022.972.064,1.431.11,1.211.121,2.549.132,3.844a26.717,26.717,0,0,0,.457,5.9C93.96,227.076,94.69,227.577,95.307,227.781Z" transform="translate(-4.709 346.438) rotate(-90)" fill="#F5F4F6"/>
    <path id="Path_37" data-name="Path 37" d="M96.2,230.914c-.409-.019-.821-.058-1.225-.115l-.128-.018-.125-.036a6.372,6.372,0,0,1-4.472-5.007,28.607,28.607,0,0,1-.548-6.6c-.011-1.294-.021-2.517-.12-3.61-.051-.556-.063-1.1-.075-1.625a10.776,10.776,0,0,0-.127-1.74,18.011,18.011,0,0,0-4.462-.541c-.957-.045-1.893-.068-2.72-.089-.631-.016-1.176-.029-1.607-.049-2.23-.1-4.2-.231-6.11-.354-1.589-.1-3.09-.2-4.5-.265-.852-.04-1.733-.07-2.585-.1s-1.747-.059-2.614-.1a29.294,29.294,0,0,1-8.664-1.374,8.778,8.778,0,0,1-5.8-5.9c-.774-2.678-.751-5.863-.726-9.234a36.853,36.853,0,0,0-.658-9.149,15.838,15.838,0,0,0-2.486-.282c-.61-.028-1.226-.039-1.877-.049-.67-.011-1.362-.022-2.067-.055-.444-.021-.849-.048-1.239-.083-1.858-.167-3.737-.3-5.726-.435-1.057-.073-2.15-.149-3.236-.231-.75-.056-1.557-.1-2.54-.15-.8-.037-1.616-.069-2.408-.1s-1.627-.063-2.438-.1a39.588,39.588,0,0,1-9.71-1.342,12.546,12.546,0,0,1-4.067-2.057,8.678,8.678,0,0,1-2.743-3.65,15.04,15.04,0,0,1-.864-4.489h0l-.019-.351q-.024-.4-.042-.8l-.021-.387L.5,34.223A30.689,30.689,0,0,1,10.572,9.651,34.269,34.269,0,0,1,22.5,2.619,39.673,39.673,0,0,1,37.448.533L178.154,7.1a44.573,44.573,0,0,1,27.935,11.677,40.6,40.6,0,0,1,8.88,11.671,34.944,34.944,0,0,1,3.751,13.96l4.695,92.114c.042.816.047,1.693.016,2.676a100.5,100.5,0,0,1,.368,16.061,70.525,70.525,0,0,1-2.968,16.8,75.433,75.433,0,0,1-5.961,14.053,48.5,48.5,0,0,1-12.075,15.149,65.6,65.6,0,0,1-17.523,9.972,97.224,97.224,0,0,1-22.245,5.566,92.368,92.368,0,0,1-13.24.9c-.335,0-.674-.013-1.036-.03-.833-.039-1.612-.107-2.366-.173-.673-.059-1.309-.115-1.915-.143a12.692,12.692,0,0,0-1.6.011,17.464,17.464,0,0,0-4.2,1.034q-.38.127-.769.254c-5.835,1.905-11.817,3.745-17.6,5.524-4.434,1.364-9.019,2.774-13.538,4.213-.705.225-1.411.481-2.159.752C102.013,230.087,99.331,231.06,96.2,230.914Zm-.891-3.133c.243.031.489.052.735.064,2.431.113,4.687-.705,7.075-1.572.744-.27,1.513-.549,2.279-.793,4.535-1.444,9.127-2.857,13.569-4.223,5.772-1.775,11.741-3.611,17.55-5.508.253-.083.5-.166.749-.248a20.57,20.57,0,0,1,5-1.2,16.179,16.179,0,0,1,2.051-.018c.682.032,1.354.091,2.066.153s1.458.128,2.215.163c.317.015.612.023.9.026a88.832,88.832,0,0,0,12.727-.869c15.81-2.14,28.667-7.147,38.214-14.884a45.907,45.907,0,0,0,11.4-14.338,68.539,68.539,0,0,0,8.612-29.736,97.678,97.678,0,0,0-.367-15.705l-.01-.1,0-.1c.032-.944.028-1.774-.011-2.537l-4.695-92.114c-.911-17.881-17.535-33.17-37.058-34.081L37.6,3.6C18.081,2.691,2.94,16.5,3.851,34.379l6.865,134.7h.013l.07,1.546a16.511,16.511,0,0,0,.736,5.063c.678,1.708,2.1,2.853,4.476,3.6a36.462,36.462,0,0,0,8.745,1.169c.8.037,1.616.069,2.408.1s1.627.063,2.438.1c1.018.048,1.859.1,2.644.156,1.075.081,2.163.156,3.215.229,1.921.133,3.906.271,5.8.442.336.03.689.054,1.08.072.649.03,1.314.041,1.956.052s1.323.022,1.988.053a17,17,0,0,1,4.381.7l.9.286.287.831c1.144,3.312,1.115,7.224,1.088,11.006-.023,3.157-.045,6.14.611,8.408,1.018,3.553,4.827,4.416,11.064,4.708.843.039,1.719.069,2.567.1.864.029,1.756.059,2.632.1,1.447.068,2.964.165,4.57.268,1.892.122,3.848.247,6.045.35.391.018.918.031,1.527.047.845.021,1.8.045,2.8.092,4.181.2,6.1.648,7.074,1.669.96,1,.992,2.419,1.025,3.917.011.478.022.972.064,1.431.11,1.211.121,2.549.132,3.844a26.717,26.717,0,0,0,.457,5.9C93.96,227.076,94.69,227.577,95.307,227.781Z" transform="translate(76.424 220.824) rotate(-90)" fill="#F5F4F6"/>
    <path id="Path_38" data-name="Path 38" d="M96.2,230.914c-.409-.019-.821-.058-1.225-.115l-.128-.018-.125-.036a6.372,6.372,0,0,1-4.472-5.007,28.607,28.607,0,0,1-.548-6.6c-.011-1.294-.021-2.517-.12-3.61-.051-.556-.063-1.1-.075-1.625a10.776,10.776,0,0,0-.127-1.74,18.011,18.011,0,0,0-4.462-.541c-.957-.045-1.893-.068-2.72-.089-.631-.016-1.176-.029-1.607-.049-2.23-.1-4.2-.231-6.11-.354-1.589-.1-3.09-.2-4.5-.265-.852-.04-1.733-.07-2.585-.1s-1.747-.059-2.614-.1a29.294,29.294,0,0,1-8.664-1.374,8.778,8.778,0,0,1-5.8-5.9c-.774-2.678-.751-5.863-.726-9.234a36.853,36.853,0,0,0-.658-9.149,15.838,15.838,0,0,0-2.486-.282c-.61-.028-1.226-.039-1.877-.049-.67-.011-1.362-.022-2.067-.055-.444-.021-.849-.048-1.239-.083-1.858-.167-3.737-.3-5.726-.435-1.057-.073-2.15-.149-3.236-.231-.75-.056-1.557-.1-2.54-.15-.8-.037-1.616-.069-2.408-.1s-1.627-.063-2.438-.1a39.588,39.588,0,0,1-9.71-1.342,12.546,12.546,0,0,1-4.067-2.057,8.678,8.678,0,0,1-2.743-3.65,15.04,15.04,0,0,1-.864-4.489h0l-.019-.351q-.024-.4-.042-.8l-.021-.387L.5,34.223A30.689,30.689,0,0,1,10.572,9.651,34.269,34.269,0,0,1,22.5,2.619,39.673,39.673,0,0,1,37.448.533L178.154,7.1a44.573,44.573,0,0,1,27.935,11.677,40.6,40.6,0,0,1,8.88,11.671,34.944,34.944,0,0,1,3.751,13.96l4.695,92.114c.042.816.047,1.693.016,2.676a100.5,100.5,0,0,1,.368,16.061,70.525,70.525,0,0,1-2.968,16.8,75.433,75.433,0,0,1-5.961,14.053,48.5,48.5,0,0,1-12.075,15.149,65.6,65.6,0,0,1-17.523,9.972,97.224,97.224,0,0,1-22.245,5.566,92.368,92.368,0,0,1-13.24.9c-.335,0-.674-.013-1.036-.03-.833-.039-1.612-.107-2.366-.173-.673-.059-1.309-.115-1.915-.143a12.692,12.692,0,0,0-1.6.011,17.464,17.464,0,0,0-4.2,1.034q-.38.127-.769.254c-5.835,1.905-11.817,3.745-17.6,5.524-4.434,1.364-9.019,2.774-13.538,4.213-.705.225-1.411.481-2.159.752C102.013,230.087,99.331,231.06,96.2,230.914Zm-.891-3.133c.243.031.489.052.735.064,2.431.113,4.687-.705,7.075-1.572.744-.27,1.513-.549,2.279-.793,4.535-1.444,9.127-2.857,13.569-4.223,5.772-1.775,11.741-3.611,17.55-5.508.253-.083.5-.166.749-.248a20.57,20.57,0,0,1,5-1.2,16.179,16.179,0,0,1,2.051-.018c.682.032,1.354.091,2.066.153s1.458.128,2.215.163c.317.015.612.023.9.026a88.832,88.832,0,0,0,12.727-.869c15.81-2.14,28.667-7.147,38.214-14.884a45.907,45.907,0,0,0,11.4-14.338,68.539,68.539,0,0,0,8.612-29.736,97.678,97.678,0,0,0-.367-15.705l-.01-.1,0-.1c.032-.944.028-1.774-.011-2.537l-4.695-92.114c-.911-17.881-17.535-33.17-37.058-34.081L37.6,3.6C18.081,2.691,2.94,16.5,3.851,34.379l6.865,134.7h.013l.07,1.546a16.511,16.511,0,0,0,.736,5.063c.678,1.708,2.1,2.853,4.476,3.6a36.462,36.462,0,0,0,8.745,1.169c.8.037,1.616.069,2.408.1s1.627.063,2.438.1c1.018.048,1.859.1,2.644.156,1.075.081,2.163.156,3.215.229,1.921.133,3.906.271,5.8.442.336.03.689.054,1.08.072.649.03,1.314.041,1.956.052s1.323.022,1.988.053a17,17,0,0,1,4.381.7l.9.286.287.831c1.144,3.312,1.115,7.224,1.088,11.006-.023,3.157-.045,6.14.611,8.408,1.018,3.553,4.827,4.416,11.064,4.708.843.039,1.719.069,2.567.1.864.029,1.756.059,2.632.1,1.447.068,2.964.165,4.57.268,1.892.122,3.848.247,6.045.35.391.018.918.031,1.527.047.845.021,1.8.045,2.8.092,4.181.2,6.1.648,7.074,1.669.96,1,.992,2.419,1.025,3.917.011.478.022.972.064,1.431.11,1.211.121,2.549.132,3.844a26.717,26.717,0,0,0,.457,5.9C93.96,227.076,94.69,227.577,95.307,227.781Z" transform="translate(143.098 369.87) rotate(-90)" fill="#F5F4F6"/>
  </g>
</svg>
