<?xml version="1.0" encoding="UTF-8"?>
<svg id="Layer_1" data-name="Layer 1" xmlns="http://www.w3.org/2000/svg" viewBox="0 0 375 500">
  <defs>
    <style>
      .cls-1 {
        fill: #443e72;
      }

      .cls-1, .cls-2, .cls-3 {
        fill-rule: evenodd;
        stroke-width: 0px;
      }

      .cls-2 {
        fill: #fac3b9;
      }

      .cls-3 {
        fill: #f47521;
      }
    </style>
  </defs>
  <path class="cls-2" d="m328.64,175.82v132.13c0,1.29-.07,2.56-.16,3.82.36,7.33.21,14.95-.58,22.88-1.72,17.42-6.92,31.59-13.58,44.15-4.52,8.51-9.62,15.85-16.45,21.99-13.31,11.96-31.12,20.29-52.37,24.49-5.04,1-11.06,1.9-17.16,2.14-3.5.14-6.47-.38-9.29,0-2.55.35-4.73,1.35-7.15,2.32-13.76,5.52-27.68,10.6-41.65,16.08-4.61,1.81-9.33,4.67-14.66,4.11-6.1-1.6-3.84-12.3-4.11-19.48-.09-2.49.36-5.22-.54-6.26-1.41-1.63-10.12-1.07-13.23-1.07-5.42,0-9.88-.18-13.94-.18-10.15,0-21.27,1.29-23.24-7.69-1.66-7.51,1.33-19.54-.91-27.69-3.69-1.11-7.68-.34-11.8-.53-3.8-.18-7.78-.23-11.79-.36-11.71-.37-25.93,1.86-28.96-7.51-.72-2.23-.76-5.01-.74-7.92h0v-63.29s0-58.47,0-58.47v-73.66c0-26.91,21.81-48.72,48.72-48.72h184.86c26.91,0,48.72,21.81,48.72,48.72Z"/>
  <path class="cls-1" d="m328.64,124.91v132.13c0,1.29-.07,2.56-.16,3.82.36,7.33.21,14.95-.58,22.88-1.72,17.42-6.92,31.59-13.58,44.15-4.52,8.51-9.62,15.85-16.45,21.99-13.31,11.96-31.12,20.29-52.37,24.49-5.04,1-11.06,1.9-17.16,2.14-3.5.14-6.47-.38-9.29,0-2.55.35-4.73,1.35-7.15,2.32-13.76,5.52-27.68,10.6-41.65,16.08-4.61,1.81-9.33,4.67-14.66,4.11-6.1-1.6-3.84-12.3-4.11-19.48-.09-2.49.36-5.22-.54-6.26-1.41-1.63-10.12-1.07-13.23-1.07-5.42,0-9.88-.18-13.94-.18-10.15,0-21.27,1.29-23.24-7.69-1.66-7.51,1.33-19.54-.91-27.69-3.69-1.11-7.68-.34-11.8-.53-3.8-.18-7.78-.23-11.79-.36-11.71-.37-25.93,1.86-28.96-7.51-.72-2.23-.76-5.01-.74-7.92h0v-63.29s0-58.47,0-58.47v-73.66c0-26.91,21.81-48.72,48.72-48.72h184.86c26.91,0,48.72,21.81,48.72,48.72Z"/>
  <path class="cls-3" d="m328.64,98.72v82.68c0,1.29-.07,2.56-.16,3.82.36,7.33.21,14.95-.58,22.88-1.72,17.42-6.92,31.59-13.58,44.15-4.52,8.51-9.62,15.85-16.45,21.99-13.31,11.96-31.12,20.29-52.37,24.49-5.04,1-11.06,1.9-17.16,2.14-3.5.14-6.47-.38-9.29,0-2.55.35-4.73,1.35-7.15,2.32-13.76,5.52-27.68,10.6-41.65,16.08-4.61,1.81-9.33,4.67-14.66,4.11-6.1-1.6-3.84-12.3-4.11-19.48-.09-2.49.36-5.22-.54-6.26-1.41-1.63-10.12-1.07-13.23-1.07-5.42,0-9.88-.18-13.94-.18-10.15,0-21.27,1.29-23.24-7.69-1.66-7.51,1.33-19.54-.91-27.69-3.69-1.11-7.68-.34-11.8-.53-3.8-.18-7.78-.23-11.79-.36-11.71-.37-25.93,1.86-28.96-7.51-.72-2.23-.76-5.01-.74-7.92h0v-13.84s0-58.47,0-58.47v-73.66c0-26.91,21.81-48.72,48.72-48.72h184.86c26.91,0,48.72,21.81,48.72,48.72Z"/>
</svg>