<svg xmlns="http://www.w3.org/2000/svg" width="25.043" height="21.896" viewBox="0 0 25.043 21.896">
  <path id="Path_31" data-name="Path 31" d="M21.894,33.877V44.125c0,.1-.005.2-.013.3a11.994,11.994,0,0,1-.045,1.775,9.036,9.036,0,0,1-1.053,3.424,6,6,0,0,1-1.275,1.705,8.438,8.438,0,0,1-4.062,1.9,8.8,8.8,0,0,1-1.331.166c-.271.011-.5-.03-.721,0a2.339,2.339,0,0,0-.554.18c-1.067.428-2.146.822-3.23,1.247a2.455,2.455,0,0,1-1.137.319c-.473-.124-.3-.954-.319-1.511-.007-.193.028-.4-.042-.485-.11-.126-.785-.083-1.026-.083-.421,0-.766-.014-1.081-.014-.787,0-1.65.1-1.8-.6-.129-.582.1-1.515-.07-2.148a3.874,3.874,0,0,0-.915-.041c-.295-.014-.6-.018-.915-.028C1.4,50.2.292,50.374.057,49.648A2.053,2.053,0,0,1,0,49.033H0V33.877A3.778,3.778,0,0,1,3.778,30.1H18.116a3.778,3.778,0,0,1,3.778,3.778" transform="translate(-30.099 21.896) rotate(-90)" fill="#f47521" fill-rule="evenodd"/>
</svg>
