<svg xmlns="http://www.w3.org/2000/svg" width="14.668" height="16.776" viewBox="0 0 14.668 16.776">
  <path id="Path_23" data-name="Path 23" d="M14.666,32.63v6.865c0,.067,0,.133-.008.2a8.035,8.035,0,0,1-.03,1.189,6.053,6.053,0,0,1-.706,2.294,4.017,4.017,0,0,1-.854,1.142,5.653,5.653,0,0,1-2.721,1.272,5.9,5.9,0,0,1-.891.111c-.182.007-.336-.02-.483,0a1.567,1.567,0,0,0-.371.121c-.715.287-1.438.551-2.164.836a1.645,1.645,0,0,1-.761.213c-.317-.083-.2-.639-.213-1.012,0-.129.019-.271-.028-.325-.073-.085-.526-.056-.687-.056-.282,0-.513-.009-.724-.009-.527,0-1.105.067-1.207-.4-.086-.39.069-1.015-.047-1.439a2.6,2.6,0,0,0-.613-.028c-.2-.009-.4-.012-.613-.019-.608-.019-1.347.1-1.5-.39A1.375,1.375,0,0,1,0,42.783H0V32.63A2.531,2.531,0,0,1,2.531,30.1h9.6a2.531,2.531,0,0,1,2.531,2.531" transform="translate(0 -30.099)" fill="#f47521" fill-rule="evenodd"/>
</svg>
