<svg xmlns="http://www.w3.org/2000/svg" xmlns:xlink="http://www.w3.org/1999/xlink" width="238.5" height="60.275" viewBox="0 0 238.5 60.275">
  <defs>
    <clipPath id="clip-path">
      <rect id="Rectangle_1" data-name="Rectangle 1" width="238.499" height="60.275" fill="none"/>
    </clipPath>
  </defs>
  <g id="Group_1" data-name="Group 1" clip-path="url(#clip-path)">
    <path id="Path_1" data-name="Path 1" d="M423.3,153.032c0,3.411-2.576,5.224-6.25,5.224-2.481,0-3.244-.859-4.151-.859a1.04,1.04,0,0,0-1.121.882l-1.145-.31v-6.226l1.145-.358c.883,2.7,2.5,5.462,4.985,5.462a2.15,2.15,0,0,0,2.362-2.195c0-4.079-8.253-2.838-8.253-8.945,0-3.1,2.672-4.723,5.629-4.723,2.051,0,2.91.835,3.626.835a1.034,1.034,0,0,0,1.121-.859l1.145.31v5.415l-1.169.358c-.883-2.338-2.409-4.651-4.365-4.651a1.839,1.839,0,0,0-2.051,1.98c0,3.6,8.492,2.648,8.492,8.659" transform="translate(-356.796 -122.481)" fill="#38315a"/>
    <path id="Path_2" data-name="Path 2" d="M526.276,187.71c0,1.741.382,2.171,1.1,2.171v.93a3.909,3.909,0,0,1-2.385.644c-1.479,0-2.624-.477-2.886-1.932a4.8,4.8,0,0,1-4.031,1.932c-1.861,0-3.2-.954-3.2-2.791,0-4.294,7.18-3.554,7.18-5.319v-.835c0-1.407-.453-2.075-1.6-2.075-.787,0-1.36.31-1.36.954a.714.714,0,0,0,.835.716c.5,1.193-.573,2.242-2.194,2.242a2.057,2.057,0,0,1-2.338-2.123c0-1.956,1.884-3.053,5.128-3.053,4.747,0,5.749,2.027,5.749,4.794Zm-4.222-.6V185.23c-1.741.739-2.863,1.264-2.863,2.7,0,.954.477,1.36,1.121,1.36.93,0,1.741-.811,1.741-2.171" transform="translate(-447.371 -155.681)" fill="#38315a"/>
    <path id="Path_3" data-name="Path 3" d="M636.989,190v1.169h-7.156V190c1.312,0,1.574-1.073,1.574-5.868,0-1.813-.548-2.886-1.622-2.886-.954,0-1.908.548-1.908,3.459,0,4.222.191,5.3,1.5,5.3v1.169h-7.132V190c1.312,0,1.574-1.073,1.574-5.868,0-1.813-.549-2.886-1.622-2.886-.978,0-1.98.548-1.98,3.459v.6c0,3.292.262,4.7,1.574,4.7v1.169h-7.156V190c1.312,0,1.574-1.407,1.574-4.7,0-3.316-.262-4.723-1.574-4.723v-1.145h5.582v1.718a3.95,3.95,0,0,1,3.864-1.98c1.98,0,2.982.811,3.435,2.29a4.238,4.238,0,0,1,4.15-2.29c2.409,0,3.864,1,3.864,4.961,0,4.794.143,5.868,1.455,5.868" transform="translate(-534.056 -155.682)" fill="#38315a"/>
    <path id="Path_4" data-name="Path 4" d="M800.7,187.71c0,1.741.382,2.171,1.1,2.171v.93a3.91,3.91,0,0,1-2.385.644c-1.479,0-2.624-.477-2.886-1.932a4.8,4.8,0,0,1-4.031,1.932c-1.861,0-3.2-.954-3.2-2.791,0-4.294,7.18-3.554,7.18-5.319v-.835c0-1.407-.453-2.075-1.6-2.075-.787,0-1.36.31-1.36.954a.714.714,0,0,0,.835.716c.5,1.193-.573,2.242-2.194,2.242a2.057,2.057,0,0,1-2.338-2.123c0-1.956,1.884-3.053,5.128-3.053,4.747,0,5.749,2.027,5.749,4.794Zm-4.222-.6V185.23c-1.741.739-2.862,1.264-2.862,2.7,0,.954.477,1.36,1.121,1.36.93,0,1.741-.811,1.741-2.171" transform="translate(-685.815 -155.681)" fill="#38315a"/>
    <path id="Path_5" data-name="Path 5" d="M903.8,190v1.169h-7.132V190c1.24,0,1.574-1.1,1.574-5.391,0-2.29-.429-3.363-1.67-3.363-.93,0-1.932.572-1.932,3.459v.6c0,3.292.262,4.7,1.574,4.7v1.169h-7.156V190c1.312,0,1.574-1.407,1.574-4.7,0-3.316-.262-4.723-1.574-4.723v-1.145h5.582v1.718a4.027,4.027,0,0,1,3.817-1.98c2.719,0,3.888,1.359,3.888,4.961,0,4.794.143,5.868,1.455,5.868" transform="translate(-772.501 -155.682)" fill="#38315a"/>
    <path id="Path_6" data-name="Path 6" d="M1007.721,163.387a3.777,3.777,0,0,1-3.721,2.457c-2.171,0-3.6-1.073-3.6-3.6,0-1.55.191-3.936.239-7.037h-1.694V154.06c1.908,0,4.174-2.385,4.771-4.365H1005l-.286,4.127h2.5v1.384h-2.576v6.965c0,1.073.429,1.455.978,1.455a1.328,1.328,0,0,0,1.121-.763Z" transform="translate(-867.976 -130.069)" fill="#38315a"/>
    <path id="Path_7" data-name="Path 7" d="M1082.826,158.856v1.169h-7.132v-1.169c1.312,0,1.574-1.073,1.574-5.868,0-1.813-.549-2.886-1.622-2.886-.954,0-1.98.525-1.98,3.316,0,4.2.31,5.439,1.574,5.439v1.169h-7.156v-1.169c1.312,0,1.574-1.336,1.574-7.036,0-5.725-.262-7.323-1.574-7.323v-1.169h5.749c-.1,1.407-.143,4.222-.167,6.631a4,4,0,0,1,3.864-1.932c2.6,0,3.84,1.312,3.84,4.961,0,4.794.143,5.868,1.455,5.868" transform="translate(-928.053 -124.537)" fill="#38315a"/>
    <path id="Path_8" data-name="Path 8" d="M1195.9,187.71c0,1.741.382,2.171,1.1,2.171v.93a3.909,3.909,0,0,1-2.385.644c-1.479,0-2.624-.477-2.886-1.932a4.8,4.8,0,0,1-4.031,1.932c-1.861,0-3.2-.954-3.2-2.791,0-4.294,7.18-3.554,7.18-5.319v-.835c0-1.407-.453-2.075-1.6-2.075-.787,0-1.359.31-1.359.954a.714.714,0,0,0,.835.716c.5,1.193-.573,2.242-2.194,2.242a2.057,2.057,0,0,1-2.338-2.123c0-1.956,1.884-3.053,5.128-3.053,4.747,0,5.749,2.027,5.749,4.794Zm-4.222-.6V185.23c-1.741.739-2.863,1.264-2.863,2.7,0,.954.477,1.36,1.121,1.36.93,0,1.741-.811,1.741-2.171" transform="translate(-1029.206 -155.681)" fill="#38315a"/>
    <path id="Path_9" data-name="Path 9" d="M1334.142,143.327c5.558,0,8.205,3.7,8.205,8.349,0,4.556-2.648,8.349-7.49,8.349H1326.6v-1.169c1.336,0,1.574-1.264,1.574-7.18s-.239-7.18-1.574-7.18v-1.169Zm-1.646,15.29h1.312c2.672,0,3.769-2.338,3.769-6.941,0-4.675-1.1-6.941-3.769-6.941H1332.5Z" transform="translate(-1152.679 -124.536)" fill="#38315a"/>
    <path id="Path_10" data-name="Path 10" d="M1467.655,191.738v1.169H1462.1v-1.718a4.014,4.014,0,0,1-3.864,2c-2.409,0-3.864-1-3.864-4.985,0-4.819-.143-5.892-1.455-5.892v-1.145h5.82a68.357,68.357,0,0,0-.239,7.037c0,1.789.549,2.886,1.622,2.886.954,0,1.98-.549,1.98-3.483v-.572c0-3.316-.262-4.723-1.574-4.723v-1.145h5.82a51.274,51.274,0,0,0-.239,5.868c0,3.292.262,4.7,1.55,4.7" transform="translate(-1262.429 -157.419)" fill="#38315a"/>
    <path id="Path_11" data-name="Path 11" d="M1572.357,163.387a3.777,3.777,0,0,1-3.721,2.457c-2.171,0-3.6-1.073-3.6-3.6,0-1.55.191-3.936.239-7.037h-1.694V154.06c1.908,0,4.174-2.385,4.771-4.365h1.288l-.286,4.127h2.5v1.384h-2.576v6.965c0,1.073.429,1.455.978,1.455a1.329,1.329,0,0,0,1.121-.763Z" transform="translate(-1358.585 -130.069)" fill="#38315a"/>
    <path id="Path_12" data-name="Path 12" d="M1644.335,181.986a2.559,2.559,0,0,1-2.5,2.815,1.651,1.651,0,0,1-1.813-1.455,1.433,1.433,0,0,0,.859-1.193.7.7,0,0,0-.716-.74c-.763,0-1.861,1.169-1.861,4.127v.453c0,2.6.263,4.007,1.574,4.007v1.169h-7.156V190c1.312,0,1.574-1.407,1.574-4.7,0-3.316-.262-4.723-1.574-4.723v-1.145h5.582v2.075a3.605,3.605,0,0,1,3.125-2.338,2.752,2.752,0,0,1,2.91,2.815" transform="translate(-1418.66 -155.681)" fill="#38315a"/>
    <path id="Path_13" data-name="Path 13" d="M1735.208,187.71c0,1.741.382,2.171,1.1,2.171v.93a3.91,3.91,0,0,1-2.385.644c-1.479,0-2.624-.477-2.886-1.932a4.8,4.8,0,0,1-4.031,1.932c-1.86,0-3.2-.954-3.2-2.791,0-4.294,7.18-3.554,7.18-5.319v-.835c0-1.407-.453-2.075-1.6-2.075-.787,0-1.359.31-1.359.954a.714.714,0,0,0,.835.716c.5,1.193-.573,2.242-2.195,2.242a2.057,2.057,0,0,1-2.338-2.123c0-1.956,1.884-3.053,5.128-3.053,4.747,0,5.749,2.027,5.749,4.794Zm-4.222-.6V185.23c-1.741.739-2.862,1.264-2.862,2.7,0,.954.477,1.36,1.121,1.36.93,0,1.741-.811,1.741-2.171" transform="translate(-1497.806 -155.681)" fill="#38315a"/>
    <path id="Path_14" data-name="Path 14" d="M42.538,95.958v19.91c0,.194-.01.385-.025.575a23.305,23.305,0,0,1-.087,3.448,17.554,17.554,0,0,1-2.047,6.652,11.65,11.65,0,0,1-2.478,3.313,16.4,16.4,0,0,1-7.891,3.69,17.1,17.1,0,0,1-2.586.323c-.527.021-.975-.058-1.4,0a4.544,4.544,0,0,0-1.077.35c-2.074.831-4.17,1.6-6.276,2.424a4.77,4.77,0,0,1-2.209.619c-.919-.242-.579-1.853-.619-2.936-.014-.375.054-.787-.081-.943-.213-.246-1.525-.162-1.993-.162-.817,0-1.489-.027-2.1-.027-1.529,0-3.206.195-3.5-1.158-.25-1.131.2-2.944-.137-4.173a7.519,7.519,0,0,0-1.778-.081c-.573-.027-1.172-.035-1.777-.054-1.764-.055-3.908.281-4.364-1.131A3.988,3.988,0,0,1,0,125.4H0V95.958a7.341,7.341,0,0,1,7.341-7.341H35.2a7.341,7.341,0,0,1,7.341,7.341" transform="translate(0 -76.999)" fill="#fac3b9" fill-rule="evenodd"/>
    <path id="Path_15" data-name="Path 15" d="M42.538,37.44V57.35c0,.194-.01.385-.025.575a23.305,23.305,0,0,1-.087,3.448,17.557,17.557,0,0,1-2.047,6.652A11.651,11.651,0,0,1,37.9,71.338a16.4,16.4,0,0,1-7.891,3.69,17.1,17.1,0,0,1-2.586.323c-.527.021-.975-.058-1.4,0a4.544,4.544,0,0,0-1.077.35c-2.074.831-4.17,1.6-6.276,2.424a4.77,4.77,0,0,1-2.209.619c-.919-.242-.579-1.853-.619-2.936-.014-.375.054-.786-.081-.943-.213-.246-1.525-.162-1.993-.162-.817,0-1.489-.027-2.1-.027-1.529,0-3.206.195-3.5-1.158-.25-1.131.2-2.944-.137-4.173a7.526,7.526,0,0,0-1.778-.081c-.573-.027-1.172-.035-1.777-.054C2.711,69.157.567,69.492.112,68.08A3.988,3.988,0,0,1,0,66.887H0V37.44A7.341,7.341,0,0,1,7.341,30.1H35.2a7.341,7.341,0,0,1,7.341,7.341" transform="translate(0 -26.153)" fill="#443e72" fill-rule="evenodd"/>
    <path id="Path_16" data-name="Path 16" d="M42.538,7.34V19.8c0,.194-.01.385-.025.575a23.305,23.305,0,0,1-.087,3.448,17.554,17.554,0,0,1-2.047,6.652A11.65,11.65,0,0,1,37.9,33.787a16.4,16.4,0,0,1-7.891,3.69,17.083,17.083,0,0,1-2.586.323c-.527.021-.975-.058-1.4,0a4.545,4.545,0,0,0-1.077.35c-2.074.831-4.17,1.6-6.276,2.424a4.769,4.769,0,0,1-2.209.619c-.919-.242-.579-1.853-.619-2.936-.014-.375.054-.787-.081-.943-.213-.246-1.525-.162-1.993-.162-.817,0-1.489-.027-2.1-.027-1.529,0-3.206.194-3.5-1.159-.25-1.131.2-2.944-.137-4.173a7.526,7.526,0,0,0-1.778-.08c-.573-.027-1.172-.035-1.777-.054C2.711,31.6.567,31.941.112,30.529A3.988,3.988,0,0,1,0,29.335H0V7.34A7.341,7.341,0,0,1,7.341,0H35.2A7.341,7.341,0,0,1,42.538,7.34" transform="translate(0 0.001)" fill="#f47521" fill-rule="evenodd"/>
  </g>
</svg>
