<svg id="Group_253" data-name="Group 253" xmlns="http://www.w3.org/2000/svg" xmlns:xlink="http://www.w3.org/1999/xlink" width="44.29" height="62.752" viewBox="0 0 44.29 62.752">
  <defs>
    <clipPath id="clip-path">
      <rect id="Rectangle_583" data-name="Rectangle 583" width="44.29" height="62.752" fill="none"/>
    </clipPath>
  </defs>
  <g id="Group_213" data-name="Group 213" clip-path="url(#clip-path)">
    <path id="Path_175" data-name="Path 175" d="M44.287,96.26v20.728c0,.2-.01.4-.026.6a24.262,24.262,0,0,1-.091,3.59,18.275,18.275,0,0,1-2.131,6.926,12.129,12.129,0,0,1-2.58,3.449,17.069,17.069,0,0,1-8.216,3.842,17.8,17.8,0,0,1-2.692.336c-.549.022-1.015-.06-1.458,0a4.73,4.73,0,0,0-1.122.365c-2.159.865-4.342,1.663-6.534,2.523a4.966,4.966,0,0,1-2.3.645c-.957-.252-.6-1.929-.645-3.056-.014-.391.057-.819-.084-.982-.222-.256-1.588-.168-2.075-.168-.851,0-1.55-.028-2.187-.028-1.592,0-3.338.2-3.645-1.206-.26-1.178.208-3.065-.142-4.345a7.828,7.828,0,0,0-1.851-.084c-.6-.028-1.221-.036-1.85-.056-1.837-.057-4.068.292-4.543-1.178A4.152,4.152,0,0,1,0,126.917H0V96.26a7.643,7.643,0,0,1,7.643-7.643h29a7.643,7.643,0,0,1,7.643,7.643" transform="translate(0 -76.521)" fill="#fac3b9" fill-rule="evenodd"/>
    <path id="Path_176" data-name="Path 176" d="M44.287,37.742V58.47c0,.2-.01.4-.026.6a24.262,24.262,0,0,1-.091,3.59,18.279,18.279,0,0,1-2.131,6.926,12.13,12.13,0,0,1-2.58,3.449,17.069,17.069,0,0,1-8.216,3.842,17.8,17.8,0,0,1-2.692.336c-.549.022-1.015-.06-1.458,0a4.731,4.731,0,0,0-1.122.365c-2.159.865-4.342,1.663-6.534,2.523a4.966,4.966,0,0,1-2.3.645c-.957-.252-.6-1.929-.645-3.056-.014-.391.057-.819-.085-.982-.222-.256-1.588-.168-2.075-.168-.851,0-1.55-.028-2.187-.028-1.592,0-3.338.2-3.645-1.206-.26-1.178.208-3.065-.142-4.345a7.835,7.835,0,0,0-1.851-.084c-.6-.028-1.221-.036-1.85-.056-1.837-.057-4.068.292-4.543-1.178A4.152,4.152,0,0,1,0,68.4H0V37.742A7.643,7.643,0,0,1,7.643,30.1h29a7.643,7.643,0,0,1,7.643,7.643" transform="translate(0 -25.991)" fill="#443e72" fill-rule="evenodd"/>
    <path id="Path_177" data-name="Path 177" d="M44.287,7.642v12.97c0,.2-.01.4-.026.6a24.262,24.262,0,0,1-.091,3.59,18.276,18.276,0,0,1-2.131,6.926,12.129,12.129,0,0,1-2.58,3.449,17.069,17.069,0,0,1-8.216,3.842,17.786,17.786,0,0,1-2.692.336c-.549.022-1.015-.06-1.458,0a4.732,4.732,0,0,0-1.122.365c-2.159.865-4.342,1.663-6.534,2.523a4.965,4.965,0,0,1-2.3.645c-.957-.252-.6-1.929-.645-3.056-.014-.391.057-.819-.084-.982-.222-.256-1.588-.168-2.075-.168-.851,0-1.55-.028-2.187-.028-1.592,0-3.338.2-3.645-1.206-.26-1.178.208-3.065-.142-4.345a7.835,7.835,0,0,0-1.851-.084c-.6-.028-1.221-.037-1.85-.056C2.822,32.9.591,33.254.116,31.784A4.152,4.152,0,0,1,0,30.541H0V7.642A7.643,7.643,0,0,1,7.643,0h29a7.643,7.643,0,0,1,7.643,7.643" transform="translate(0 0.001)" fill="#f47521" fill-rule="evenodd"/>
  </g>
</svg>
