<svg id="Group_59" data-name="Group 59" xmlns="http://www.w3.org/2000/svg" xmlns:xlink="http://www.w3.org/1999/xlink" width="353" height="89.211" viewBox="0 0 353 89.211">
  <defs>
    <clipPath id="clip-path">
      <rect id="Rectangle_40" data-name="Rectangle 40" width="353" height="89.212" fill="none"/>
    </clipPath>
  </defs>
  <g id="Group_58" data-name="Group 58" clip-path="url(#clip-path)">
    <path id="Path_59" data-name="Path 59" d="M429.379,158.826c0,5.049-3.813,7.732-9.25,7.732-3.672,0-4.8-1.271-6.143-1.271a1.539,1.539,0,0,0-1.659,1.306l-1.695-.459V156.92l1.695-.53c1.306,3.989,3.707,8.085,7.379,8.085a3.182,3.182,0,0,0,3.5-3.248c0-6.037-12.216-4.2-12.216-13.239,0-4.59,3.954-6.991,8.332-6.991,3.036,0,4.307,1.236,5.366,1.236a1.53,1.53,0,0,0,1.659-1.271l1.695.459v8.014l-1.73.53c-1.306-3.46-3.566-6.884-6.461-6.884a2.722,2.722,0,0,0-3.036,2.93c0,5.331,12.569,3.919,12.569,12.816" transform="translate(-330.95 -113.609)" fill="#fff"/>
    <path id="Path_60" data-name="Path 60" d="M531.749,191.81c0,2.577.565,3.213,1.624,3.213V196.4a5.786,5.786,0,0,1-3.53.953c-2.189,0-3.884-.706-4.272-2.86a7.1,7.1,0,0,1-5.967,2.86c-2.754,0-4.731-1.412-4.731-4.131,0-6.355,10.627-5.26,10.627-7.873v-1.235c0-2.083-.671-3.071-2.366-3.071-1.165,0-2.012.459-2.012,1.412a1.056,1.056,0,0,0,1.236,1.059c.742,1.765-.847,3.319-3.248,3.319-2.189,0-3.46-1.2-3.46-3.142,0-2.9,2.789-4.519,7.591-4.519,7.026,0,8.508,3,8.508,7.1Zm-6.249-.883v-2.789c-2.578,1.094-4.237,1.871-4.237,3.989,0,1.412.706,2.012,1.659,2.012,1.377,0,2.578-1.2,2.578-3.213" transform="translate(-414.963 -144.403)" fill="#fff"/>
    <path id="Path_61" data-name="Path 61" d="M647.718,195.2v1.73H637.126V195.2c1.942,0,2.33-1.589,2.33-8.685,0-2.683-.812-4.272-2.4-4.272-1.412,0-2.824.812-2.824,5.119,0,6.249.283,7.838,2.224,7.838v1.73H625.9V195.2c1.942,0,2.33-1.589,2.33-8.685,0-2.683-.812-4.272-2.4-4.272-1.447,0-2.93.812-2.93,5.119v.883c0,4.872.388,6.955,2.33,6.955v1.73H614.637V195.2c1.942,0,2.33-2.083,2.33-6.955,0-4.908-.388-6.991-2.33-6.991V179.56H622.9V182.1c1.2-2.119,3.036-2.93,5.719-2.93,2.93,0,4.413,1.2,5.084,3.389,1.412-2.507,3.354-3.389,6.143-3.389,3.566,0,5.719,1.482,5.719,7.343,0,7.1.212,8.685,2.154,8.685" transform="translate(-495.368 -144.404)" fill="#fff"/>
    <path id="Path_62" data-name="Path 62" d="M806.172,191.81c0,2.577.565,3.213,1.624,3.213V196.4a5.787,5.787,0,0,1-3.531.953c-2.189,0-3.883-.706-4.272-2.86a7.1,7.1,0,0,1-5.967,2.86c-2.754,0-4.731-1.412-4.731-4.131,0-6.355,10.627-5.26,10.627-7.873v-1.235c0-2.083-.671-3.071-2.365-3.071-1.165,0-2.012.459-2.012,1.412a1.056,1.056,0,0,0,1.236,1.059c.741,1.765-.847,3.319-3.248,3.319-2.189,0-3.46-1.2-3.46-3.142,0-2.9,2.789-4.519,7.59-4.519,7.026,0,8.509,3,8.509,7.1Zm-6.249-.883v-2.789c-2.577,1.094-4.236,1.871-4.236,3.989,0,1.412.706,2.012,1.659,2.012,1.377,0,2.577-1.2,2.577-3.213" transform="translate(-636.135 -144.403)" fill="#fff"/>
    <path id="Path_63" data-name="Path 63" d="M910.88,195.2v1.73H900.324V195.2c1.836,0,2.33-1.624,2.33-7.979,0-3.389-.635-4.978-2.471-4.978-1.377,0-2.86.847-2.86,5.119v.883c0,4.872.388,6.955,2.33,6.955v1.73H889.062V195.2c1.942,0,2.33-2.083,2.33-6.955,0-4.908-.388-6.991-2.33-6.991V179.56h8.261V182.1a5.961,5.961,0,0,1,5.649-2.93c4.025,0,5.754,2.012,5.754,7.343,0,7.1.212,8.685,2.154,8.685" transform="translate(-716.542 -144.404)" fill="#fff"/>
    <path id="Path_64" data-name="Path 64" d="M1011.934,169.96a5.59,5.59,0,0,1-5.507,3.637c-3.213,0-5.331-1.589-5.331-5.331,0-2.295.282-5.825.353-10.415h-2.507v-1.695c2.825,0,6.178-3.53,7.061-6.461h1.907l-.424,6.108h3.707v2.048h-3.813V168.16c0,1.589.636,2.154,1.447,2.154a1.967,1.967,0,0,0,1.66-1.13Z" transform="translate(-805.1 -120.647)" fill="#fff"/>
    <path id="Path_65" data-name="Path 65" d="M1089.9,166.311v1.73h-10.556v-1.73c1.942,0,2.33-1.589,2.33-8.685,0-2.683-.812-4.272-2.4-4.272-1.412,0-2.93.777-2.93,4.907,0,6.214.459,8.049,2.33,8.049v1.73h-10.592v-1.73c1.942,0,2.33-1.977,2.33-10.415,0-8.474-.388-10.839-2.33-10.839v-1.73h8.509c-.141,2.083-.212,6.249-.247,9.815,1.2-2.013,2.966-2.859,5.719-2.859,3.848,0,5.684,1.941,5.684,7.343,0,7.1.212,8.685,2.154,8.685" transform="translate(-860.825 -115.516)" fill="#fff"/>
    <path id="Path_66" data-name="Path 66" d="M1201.375,191.81c0,2.577.565,3.213,1.624,3.213V196.4a5.786,5.786,0,0,1-3.53.953c-2.189,0-3.883-.706-4.271-2.86a7.1,7.1,0,0,1-5.967,2.86c-2.754,0-4.731-1.412-4.731-4.131,0-6.355,10.627-5.26,10.627-7.873v-1.235c0-2.083-.671-3.071-2.366-3.071-1.165,0-2.012.459-2.012,1.412a1.056,1.056,0,0,0,1.236,1.059c.741,1.765-.848,3.319-3.248,3.319-2.189,0-3.46-1.2-3.46-3.142,0-2.9,2.789-4.519,7.591-4.519,7.026,0,8.508,3,8.508,7.1Zm-6.249-.883v-2.789c-2.577,1.094-4.237,1.871-4.237,3.989,0,1.412.706,2.012,1.66,2.012,1.377,0,2.577-1.2,2.577-3.213" transform="translate(-954.65 -144.403)" fill="#fff"/>
    <path id="Path_67" data-name="Path 67" d="M1337.759,143.327c8.226,0,12.145,5.473,12.145,12.357,0,6.743-3.919,12.357-11.085,12.357H1326.6v-1.73c1.977,0,2.33-1.871,2.33-10.627s-.353-10.627-2.33-10.627v-1.73Zm-2.436,22.63h1.942c3.954,0,5.578-3.46,5.578-10.274,0-6.92-1.624-10.274-5.578-10.274h-1.942Z" transform="translate(-1069.179 -115.515)" fill="#fff"/>
    <path id="Path_68" data-name="Path 68" d="M1474.732,196.811v1.73h-8.226V196c-1.271,2.154-3.106,2.966-5.719,2.966-3.566,0-5.719-1.483-5.719-7.379,0-7.132-.212-8.72-2.154-8.72v-1.695h8.615a101.131,101.131,0,0,0-.353,10.415c0,2.648.812,4.272,2.4,4.272,1.412,0,2.93-.812,2.93-5.155v-.847c0-4.908-.388-6.991-2.33-6.991v-1.695h8.615a75.873,75.873,0,0,0-.353,8.685c0,4.872.389,6.955,2.295,6.955" transform="translate(-1170.979 -146.015)" fill="#fff"/>
    <path id="Path_69" data-name="Path 69" d="M1576.57,169.96a5.59,5.59,0,0,1-5.508,3.637c-3.212,0-5.331-1.589-5.331-5.331,0-2.295.282-5.825.353-10.415h-2.507v-1.695c2.824,0,6.178-3.53,7.061-6.461h1.906l-.424,6.108h3.707v2.048h-3.813V168.16c0,1.589.636,2.154,1.448,2.154a1.967,1.967,0,0,0,1.66-1.13Z" transform="translate(-1260.17 -120.647)" fill="#fff"/>
    <path id="Path_70" data-name="Path 70" d="M1649.912,183.337c0,2.824-1.907,4.166-3.707,4.166a2.443,2.443,0,0,1-2.683-2.154,2.121,2.121,0,0,0,1.271-1.765,1.028,1.028,0,0,0-1.059-1.095c-1.13,0-2.754,1.73-2.754,6.108v.671c0,3.848.389,5.931,2.33,5.931v1.73h-10.591V195.2c1.942,0,2.33-2.083,2.33-6.955,0-4.907-.388-6.991-2.33-6.991v-1.695h8.261v3.072c1.2-2.542,3.142-3.46,4.625-3.46a4.073,4.073,0,0,1,4.307,4.166" transform="translate(-1315.893 -144.403)" fill="#fff"/>
    <path id="Path_71" data-name="Path 71" d="M1740.681,191.81c0,2.577.565,3.213,1.624,3.213V196.4a5.788,5.788,0,0,1-3.531.953c-2.189,0-3.883-.706-4.272-2.86a7.1,7.1,0,0,1-5.967,2.86c-2.754,0-4.731-1.412-4.731-4.131,0-6.355,10.627-5.26,10.627-7.873v-1.235c0-2.083-.67-3.071-2.365-3.071-1.165,0-2.012.459-2.012,1.412a1.056,1.056,0,0,0,1.236,1.059c.741,1.765-.848,3.319-3.248,3.319-2.189,0-3.46-1.2-3.46-3.142,0-2.9,2.789-4.519,7.59-4.519,7.026,0,8.508,3,8.508,7.1Zm-6.249-.883v-2.789c-2.577,1.094-4.236,1.871-4.236,3.989,0,1.412.706,2.012,1.659,2.012,1.377,0,2.577-1.2,2.577-3.213" transform="translate(-1389.305 -144.403)" fill="#fff"/>
    <path id="Path_72" data-name="Path 72" d="M62.795,268.043a25.962,25.962,0,0,1-3.03,9.848,17.273,17.273,0,0,1-3.667,4.9,24.264,24.264,0,0,1-11.68,5.461,25.561,25.561,0,0,1-3.826.479c-.782.031-1.443-.086-2.073,0a6.584,6.584,0,0,0-1.594.517c-3.068,1.229-6.174,2.366-9.29,3.588a7.041,7.041,0,0,1-3.268.916c-1.36-.358-.857-2.741-.916-4.346-.021-.554.079-1.164-.121-1.394-.317-.362-2.259-.238-2.951-.238-1.209,0-2.2-.041-3.109-.041-2.262,0-4.745.289-5.182-1.715-.368-1.673.3-4.356-.2-6.177a11.184,11.184,0,0,0-2.631-.117c-.847-.041-1.736-.052-2.631-.079-2.61-.083-5.781.413-6.456-1.677A5.869,5.869,0,0,1,0,276.2V265.04a5.338,5.338,0,0,0,.165,1.577c.675,2.09,3.846,1.591,6.456,1.674.9.027,1.784.038,2.631.079a11.166,11.166,0,0,1,2.631.121c.5,1.818-.165,4.5.2,6.174.437,2,2.92,1.715,5.182,1.715.905,0,1.9.041,3.109.041.692,0,2.634-.124,2.951.238.2.234.1.84.121,1.4.058,1.6-.444,3.987.916,4.342a6.989,6.989,0,0,0,3.268-.916c3.116-1.223,6.222-2.355,9.29-3.585a6.749,6.749,0,0,1,1.594-.52c.63-.086,1.291.031,2.073,0a25.162,25.162,0,0,0,3.826-.479,24.233,24.233,0,0,0,11.68-5.461,17.226,17.226,0,0,0,3.667-4.9,25.9,25.9,0,0,0,3.03-9.845q.145-1.472.165-2.879v8.278c0,.286-.014.572-.038.851a34.132,34.132,0,0,1-.127,5.1" transform="translate(0 -204.56)" fill="#fff" fill-rule="evenodd"/>
    <path id="Path_73" data-name="Path 73" d="M62.963,10.864V29.3c0,.286-.014.572-.038.851.024.465.038.937.038,1.412v.565c-.007,1.016-.059,2.059-.165,3.126a25.963,25.963,0,0,1-3.03,9.848,17.224,17.224,0,0,1-3.667,4.9A24.259,24.259,0,0,1,44.42,55.47a25.139,25.139,0,0,1-3.825.479c-.782.031-1.443-.086-2.073,0a6.9,6.9,0,0,0-1.594.517c-3.068,1.233-6.174,2.366-9.29,3.588a7.041,7.041,0,0,1-3.268.916c-1.36-.358-.857-2.741-.916-4.346-.021-.554.079-1.164-.121-1.395-.317-.362-2.259-.238-2.951-.238-1.209,0-2.2-.041-3.109-.041-2.262,0-4.745.289-5.182-1.715-.368-1.673.3-4.356-.2-6.174a11.191,11.191,0,0,0-2.631-.121c-.847-.041-1.736-.052-2.631-.079-2.61-.083-5.781.413-6.456-1.677A5.315,5.315,0,0,1,0,43.611V10.864A10.864,10.864,0,0,1,10.867,0H52.1A10.866,10.866,0,0,1,62.963,10.864" transform="translate(-0.002)" fill="#fff" fill-rule="evenodd"/>
  </g>
</svg>
